HIERARCHY
ROOT Hips
{
 OFFSET 0.000000 0.000000 0.000000
 CHANNELS 6 Xposition Yposition Zposition Yrotation Xrotation Zrotation
 JOINT Chest
 {
  OFFSET 0.000000 9.585900 0.002600
  CHANNELS 3 Yrotation Xrotation Zrotation
  JOINT Chest2
  {
   OFFSET 0.000000 9.601200 -0.005300
   CHANNELS 3 Yrotation Xrotation Zrotation
   JOINT Chest3
   {
    OFFSET 0.000000 9.561800 0.000000
    CHANNELS 3 Yrotation Xrotation Zrotation
    JOINT Chest4
    {
     OFFSET 0.000000 9.552100 0.000000
     CHANNELS 3 Yrotation Xrotation Zrotation
     JOINT Neck
     {
      OFFSET 0.000000 14.453000 0.000000
      CHANNELS 3 Yrotation Xrotation Zrotation
      JOINT Head
      {
       OFFSET 0.000000 8.936500 -0.011300
       CHANNELS 3 Yrotation Xrotation Zrotation
       End Site
       {
        OFFSET 0.000000 17.073600 -0.006000
       }
      }
     }
     JOINT RightCollar
     {
      OFFSET -2.921100 9.558500 0.000000
      CHANNELS 3 Yrotation Xrotation Zrotation
      JOINT RightShoulder
      {
       OFFSET -13.519700 0.000000 0.000000
       CHANNELS 3 Yrotation Xrotation Zrotation
       JOINT RightElbow
       {
        OFFSET 0.000000 -29.696600 0.000000
        CHANNELS 3 Yrotation Xrotation Zrotation
        JOINT RightWrist
        {
         OFFSET 0.000000 -24.004700 0.000000
         CHANNELS 3 Yrotation Xrotation Zrotation
         End Site
         {
          OFFSET 0.000000 -17.728500 0.000000
         }
        }
       }
      }
     }
     JOINT LeftCollar
     {
      OFFSET 2.921100 9.558500 0.000000
      CHANNELS 3 Yrotation Xrotation Zrotation
      JOINT LeftShoulder
      {
       OFFSET 13.519700 0.000000 0.000000
       CHANNELS 3 Yrotation Xrotation Zrotation
       JOINT LeftElbow
       {
        OFFSET 0.000000 -29.696600 0.000000
        CHANNELS 3 Yrotation Xrotation Zrotation
        JOINT LeftWrist
        {
         OFFSET 0.000000 -24.004700 0.000000
         CHANNELS 3 Yrotation Xrotation Zrotation
         End Site
         {
          OFFSET 0.000000 -17.728500 0.000000
         }
        }
       }
      }
     }
    }
   }
  }
 }
 JOINT RightHip
 {
  OFFSET -7.771700 -0.012900 -0.001300
  CHANNELS 3 Yrotation Xrotation Zrotation
  JOINT RightKnee
  {
   OFFSET 0.000000 -40.869800 0.001200
   CHANNELS 3 Yrotation Xrotation Zrotation
   JOINT RightAnkle
   {
    OFFSET 0.000000 -39.717900 0.002100
    CHANNELS 3 Yrotation Xrotation Zrotation
    JOINT RightToe
    {
     OFFSET 0.000000 -4.965400 11.033500
     CHANNELS 3 Yrotation Xrotation Zrotation
     End Site
     {
      OFFSET 0.000000 -1.423100 5.872300
     }
    }
   }
  }
 }
 JOINT LeftHip
 {
  OFFSET 7.771700 -0.012900 -0.001300
  CHANNELS 3 Yrotation Xrotation Zrotation
  JOINT LeftKnee
  {
   OFFSET 0.000000 -40.869800 0.001200
   CHANNELS 3 Yrotation Xrotation Zrotation
   JOINT LeftAnkle
   {
    OFFSET 0.000000 -39.717900 0.002100
    CHANNELS 3 Yrotation Xrotation Zrotation
    JOINT LeftToe
    {
     OFFSET 0.000000 -4.965400 11.033500
     CHANNELS 3 Yrotation Xrotation Zrotation
     End Site
     {
      OFFSET 0.000000 -1.423100 5.872300
     }
    }
   }
  }
 }
}
MOTION
Frames: 9
Frame Time: 0.008333
0.000000 85.388000 0.000000 0.000000 -5.767877 0.000000 0.000000 11.653817 0.000000 0.000000 -5.885947 0.000000 0.000000 -0.000000 0.000000 0.000000 -0.000000 0.000000 0.000000 12.528835 0.000000 0.000000 0.711642 0.000000 0.000000 -0.000000 0.000000 0.000000 0.000000 -90.000000 0.000000 -2.309062 0.000000 0.000000 2.309062 0.000000 0.000000 -0.000000 0.000000 0.000000 -0.000000 90.000000 0.000000 -2.309062 0.000000 0.000000 2.309062 0.000000 0.000000 8.520406 0.000000 0.000000 1.905762 0.000000 -0.000000 -4.658285 0.000000 0.000000 -0.000000 0.000000 0.000000 8.520406 0.000000 0.000000 1.905762 0.000000 -0.000000 -4.658285 0.000000 0.000000 -0.000000 0.000000
-14.665775 57.945864 64.998769 171.885060 -28.421197 -3.229537 5.892345 19.838665 5.865178 0.590762 2.610031 0.395953 0.956200 4.257252 0.660726 4.350879 17.140446 3.204348 -2.548034 12.933847 0.462881 -4.981742 -11.511813 1.963306 2.938420 -3.289063 -0.567746 12.605470 -16.886312 -19.296767 152.280412 -84.042423 -116.302692 18.968414 -20.156214 -50.872554 -8.224463 -4.601807 -2.694212 -0.122666 -13.684399 5.771656 -124.531211 -82.955724 89.017739 -6.330031 -4.228019 17.240792 8.477421 -42.994574 2.682319 -3.695061 67.640542 -7.158283 5.174894 5.548177 9.510425 -0.740712 0.658759 -0.343920 -4.758006 -49.690680 6.756601 31.823693 59.374521 33.952121 -21.482357 35.738193 -1.748914 0.088806 -16.191773 -6.076382
-14.667926 57.946166 64.997741 171.861383 -28.433800 -3.237948 5.881551 19.839884 5.868287 0.589606 2.608833 0.396712 0.974163 4.262973 0.662993 4.347732 17.138938 3.206725 -2.518460 13.052566 0.504272 -4.906185 -11.411813 1.948029 2.906292 -3.300249 -0.563070 12.630419 -16.920298 -19.312562 152.757233 -83.956346 -116.839938 18.968573 -20.166585 -50.886068 -8.245447 -4.619294 -2.697673 -0.134466 -13.712752 5.769543 -125.373234 -82.949732 89.895845 -6.336340 -4.225688 17.275876 8.502199 -42.990084 2.674489 -3.671083 67.639428 -7.100375 5.179747 5.569795 9.500492 -0.745070 0.648382 -0.342355 -4.757946 -49.680824 6.779581 31.818424 59.386549 33.967210 -21.499437 35.725410 -1.781756 0.091162 -16.185838 -6.066267
-14.673785 57.945455 64.998139 171.837173 -28.434168 -3.229907 5.866930 19.829352 5.850835 0.589206 2.607944 0.397477 0.973552 4.261590 0.664198 4.346426 17.136152 3.212113 -2.476968 13.144611 0.521438 -4.836177 -11.285621 1.949094 2.900078 -3.296377 -0.567034 12.657326 -16.931476 -19.320171 153.291463 -83.847416 -117.452256 18.963069 -20.175885 -50.894737 -8.245872 -4.627124 -2.711721 -0.124558 -13.716012 5.772720 -126.465833 -82.928374 91.001052 -6.339062 -4.227122 17.308954 8.544700 -43.000445 2.624095 -3.622632 67.643680 -6.998993 5.184813 5.597913 9.476693 -0.745326 0.634569 -0.340417 -4.740048 -49.683489 6.779148 31.822019 59.389125 33.980998 -21.522362 35.728780 -1.792126 0.089263 -16.190419 -6.068798
-14.677459 57.945630 64.998095 171.808133 -28.441643 -3.234533 5.865166 19.827279 5.850540 0.556757 2.595740 0.388013 1.004222 4.269141 0.673835 4.316548 17.111787 3.213247 -2.409899 13.238042 0.525079 -4.771299 -11.151183 1.958405 2.924456 -3.268052 -0.575656 12.659661 -16.986763 -19.342836 153.943543 -83.778313 -118.146013 18.947907 -20.188006 -50.902090 -8.240230 -4.622348 -2.727770 -0.132149 -13.753558 5.775744 -127.214165 -82.925462 91.790302 -6.337921 -4.225926 17.340429 8.553334 -43.000568 2.629088 -3.586400 67.639589 -6.945376 5.178891 5.625323 9.465177 -0.737371 0.624995 -0.337084 -4.732955 -49.680291 6.791736 31.838762 59.392663 34.019134 -21.522969 35.727319 -1.798917 0.091854 -16.192076 -6.076595
-14.683087 57.945678 64.998514 171.792035 -28.444318 -3.234284 5.844706 19.823917 5.834797 0.577344 2.598102 0.394553 0.986058 4.262332 0.669345 4.324639 17.104747 3.216524 -2.376194 13.306815 0.539616 -4.710665 -11.024263 1.969279 2.916654 -3.259939 -0.574667 12.661503 -17.042184 -19.369111 154.635976 -83.712029 -118.877509 18.930972 -20.202601 -50.913783 -8.234821 -4.612949 -2.731811 -0.176067 -13.811172 5.777562 -127.987235 -82.918409 92.599247 -6.336788 -4.224102 17.374767 8.555646 -43.003165 2.618389 -3.540339 67.637859 -6.882071 5.167773 5.651448 9.450598 -0.722049 0.614823 -0.334913 -4.723346 -49.677971 6.786963 31.842160 59.393948 34.038975 -21.502882 35.719219 -1.794074 0.086497 -16.179333 -6.083091
-14.689049 57.946285 64.998500 171.774810 -28.450581 -3.229433 5.809162 19.815671 5.804233 0.613737 2.609815 0.407786 0.956395 4.246762 0.660723 4.341477 17.110534 3.221602 -2.343295 13.370149 0.554164 -4.651716 -10.907260 1.980766 2.912685 -3.253724 -0.571568 12.671128 -17.080048 -19.392108 155.327926 -83.630370 -119.617476 18.915616 -20.216740 -50.927612 -8.242210 -4.617390 -2.727505 -0.163998 -13.817684 5.772480 -129.121205 -82.886064 93.737608 -6.337322 -4.224857 17.410573 8.559138 -43.000164 2.600573 -3.513808 67.633278 -6.832388 5.166243 5.675169 9.429403 -0.701826 0.604085 -0.333425 -4.711443 -49.669892 6.760207 31.883446 59.377451 34.107948 -21.478064 35.707830 -1.784118 0.064900 -16.171302 -6.097009
-14.687542 57.948454 64.998153 171.746142 -28.469172 -3.260099 5.813074 19.820530 5.825389 0.614630 2.609842 0.409193 0.975213 4.251834 0.666800 4.335666 17.105517 3.219506 -2.312768 13.426861 0.569276 -4.597719 -10.802484 1.994597 2.907277 -3.251872 -0.566647 12.682813 -17.113518 -19.416438 156.030665 -83.545384 -120.369061 18.901698 -20.227516 -50.941484 -8.270618 -4.650237 -2.718017 -0.159648 -13.839457 5.772003 -129.974349 -82.873421 94.618522 -6.338371 -4.225500 17.442654 8.532158 -42.989665 2.652488 -3.486881 67.623401 -6.792327 5.164353 5.713119 9.423645 -0.693904 0.587585 -0.338143 -4.735845 -49.648388 6.817975 31.876995 59.379706 34.150049 -21.570942 35.675212 -1.903204 0.119322 -16.153906 -6.071199
-14.689964 57.949725 64.998876 171.726901 -28.476387 -3.269246 5.818671 19.820767 5.831009 0.606772 2.606875 0.407707 0.955935 4.245004 0.656430 4.366974 17.113392 3.228867 -2.286497 13.475695 0.584594 -4.552200 -10.712176 2.010930 2.910728 -3.249419 -0.561566 12.682198 -17.148365 -19.439556 156.715880 -83.456741 -121.100851 18.892114 -20.234092 -50.958483 -8.267712 -4.652591 -2.715282 -0.189587 -13.891924 5.785299 -130.869263 -82.860889 95.538609 -6.339933 -4.224826 17.469691 8.524801 -42.984235 2.661047 -3.472698 67.612604 -6.758232 5.162133 5.734163 9.404998 -0.684221 0.587082 -0.333344 -4.743012 -49.638694 6.829470 31.882497 59.379568 34.182718 -21.567034 35.652818 -1.914263 0.116311 -16.138873 -6.081955
